HIERARCHY
ROOT Hips
{
	OFFSET 0.00 0.00 0.00
	CHANNELS 6 Xposition Yposition Zposition Xrotation Yrotation Zrotation
	JOINT Spine
	{
		OFFSET 0.00000 7.50895 0.00000
		CHANNELS 3 Xrotation Yrotation Zrotation
		JOINT Head
		{
			OFFSET 0.00000 13.86115 0.00000
			CHANNELS 3 Xrotation Yrotation Zrotation
			End Site
			{
				OFFSET 0.00000 4.52755 0.00000
			}
		}
		JOINT LeftShoulder
		{
			OFFSET 0.00000 8.20478 0.00000
			CHANNELS 3 Xrotation Yrotation Zrotation
			JOINT LeftArm
			{
				OFFSET 6.63596 0.00000 0.00000
				CHANNELS 3 Xrotation Yrotation Zrotation
				JOINT LeftForeArm
				{
					OFFSET 10.27422 0.00000 0.00000
					CHANNELS 3 Yrotation Zrotation Xrotation
					JOINT LeftHand
					{
						OFFSET 8.52215 0.00000 0.00000
						CHANNELS 3 Xrotation Yrotation Zrotation
						JOINT LeftHandThumb1
						{
							OFFSET 0.00000 0.00000 0.00000
							CHANNELS 3 Xrotation Zrotation Yrotation
							End Site
							{
								OFFSET 0.00000 0.00000 3.93700
							}
						}
						End Site
						{
							OFFSET 3.93700 0.00000 0.00000
						}
					}
				}
			}
		}
		JOINT RightShoulder
		{
			OFFSET 0.00000 8.20478 0.00000
			CHANNELS 3 Xrotation Yrotation Zrotation
			JOINT RightArm
			{
				OFFSET -6.63596 0.00000 0.00000
				CHANNELS 3 Xrotation Yrotation Zrotation
				JOINT RightForeArm
				{
					OFFSET -10.27422 0.00000 0.00000
					CHANNELS 3 Yrotation Zrotation Xrotation
					JOINT RightHand
					{
						OFFSET -8.52215 0.00000 0.00000
						CHANNELS 3 Xrotation Yrotation Zrotation
						JOINT RightHandThumb1
						{
							OFFSET 0.00000 0.00000 0.00000
							CHANNELS 3 Xrotation Zrotation Yrotation
							End Site
							{
								OFFSET 0.00000 0.00000 3.93700
							}
						}
						End Site
						{
							OFFSET -3.93700 0.00000 0.00000
						}
					}
				}
			}
		}
	}
	JOINT LeftUpLeg
	{
		OFFSET 3.00056 0.00000 0.00000
		CHANNELS 3 Xrotation Yrotation Zrotation
		JOINT LeftLeg
		{
			OFFSET 0.00000 -16.49085 0.00000
			CHANNELS 3 Xrotation Yrotation Zrotation
			JOINT LeftFoot
			{
				OFFSET 0.00000 -14.55658 0.00000
				CHANNELS 3 Xrotation Yrotation Zrotation
				JOINT LeftToeBase
				{
					OFFSET 0.00000 -1.25038 4.66650
					CHANNELS 3 Xrotation Yrotation Zrotation
					End Site
					{
						OFFSET 0.00000 0.00000 2.95275
					}
				}
			}
		}
	}
	JOINT RightUpLeg
	{
		OFFSET -3.00056 0.00000 0.00000
		CHANNELS 3 Xrotation Yrotation Zrotation
		JOINT RightLeg
		{
			OFFSET 0.00000 -16.49085 0.00000
			CHANNELS 3 Xrotation Yrotation Zrotation
			JOINT RightFoot
			{
				OFFSET 0.00000 -14.55658 0.00000
				CHANNELS 3 Xrotation Yrotation Zrotation
				JOINT RightToeBase
				{
					OFFSET 0.00000 -1.25038 4.66650
					CHANNELS 3 Xrotation Yrotation Zrotation
					End Site
					{
						OFFSET 0.00000 0.00000 2.95275
					}
				}
			}
		}
	}
}
MOTION
Frames: 16
Frame Time: 0.008333
 24.2255 32.0747 -4.1124 122.7735 -46.5262 110.0856 27.5302 14.4904 -8.6531 -38.2718 -1.6894 7.9702 5.6503 -6.6943 19.4528 -46.6428 -41.2091 -77.2377 -17.1921 -0.0000 8.0505 -2.2263 29.5917 4.5013 33.1476 -0.0000 26.2537 -27.3968 19.4872 -19.9060 -29.8660 31.0422 95.5093 16.7033 -0.0000 22.6101 0.6696 -5.3045 7.2055 32.8623 0.0000 -24.3270 -67.9046 1.9609 19.3470 3.2174 0.0000 0.0000 37.1101 21.9187 -27.9385 5.4102 -0.0000 0.0000 -28.8035 -13.3438 20.0356 14.4279 -0.0000 0.0000 -20.0630 -9.3560 -8.0215 0.0725 0.0000 0.0000
 24.3939 32.0888 -4.1403 122.6501 -46.8565 110.0159 27.5418 14.4703 -8.6035 -38.1160 -1.9293 7.9352 5.5032 -6.9074 19.6283 -46.6479 -41.3239 -77.4792 -16.8158 -0.0000 7.6453 -1.9787 29.3883 4.0271 33.1476 -0.0000 26.2537 -27.3356 19.3500 -19.6720 -29.5300 31.1645 95.2341 16.6738 -0.0000 22.4981 0.6589 -5.3742 7.0006 32.8623 0.0000 -24.3270 -68.3314 2.5180 19.2783 3.0951 0.0000 0.0000 38.9530 21.6694 -28.5525 6.1142 0.0000 -0.0000 -28.8977 -12.3702 20.1667 13.8849 -0.0000 0.0000 -20.0504 -10.1872 -8.7784 0.2942 -0.0000 0.0000
 24.5526 32.0965 -4.1738 122.5700 -47.2703 109.9140 27.6342 14.5057 -8.4629 -37.9578 -2.1021 7.8793 5.4023 -7.0555 19.8078 -46.8627 -41.3675 -77.8095 -16.4945 -0.0000 7.5855 -1.5697 29.4611 3.1891 33.1476 -0.0000 26.2537 -27.2679 19.2360 -19.4751 -29.1952 31.1504 94.9461 16.5500 -0.0000 22.5233 0.6641 -5.2726 7.1896 32.8623 0.0000 -24.3270 -68.6625 2.9555 19.2482 3.0723 -0.0000 -0.0000 40.4299 21.4232 -28.8653 7.1775 -0.0000 0.0000 -28.8345 -11.7375 20.3257 13.4960 0.0000 -0.0000 -20.0531 -10.7463 -9.3756 0.2949 0.0000 0.0000
 24.7006 32.0982 -4.2072 122.5781 -47.7264 109.8484 27.7822 14.6040 -8.2738 -37.7914 -2.2386 7.7055 5.2554 -7.2539 19.9732 -46.9843 -41.2727 -78.1111 -16.3026 -0.0000 7.4981 -1.0983 29.4737 2.2313 33.1476 -0.0000 26.2537 -27.0586 19.1309 -19.3610 -28.9875 31.3111 94.6167 16.4090 -0.0000 22.3961 0.6688 -5.3383 7.1519 32.8623 0.0000 -24.3270 -68.9192 3.2624 19.2675 3.1853 -0.0000 -0.0000 41.8781 21.2981 -29.6538 7.7817 -0.0000 0.0000 -28.6575 -11.3787 20.4873 13.2519 -0.0000 -0.0000 -20.0732 -11.0324 -9.8012 0.2545 -0.0000 0.0000
 24.8423 32.0963 -4.2431 122.6093 -48.1769 109.7429 27.8963 14.7566 -7.9890 -37.6006 -2.3176 7.4420 5.1656 -7.4164 20.0718 -47.2240 -41.2721 -78.4168 -16.0251 -0.0000 7.2207 -0.7899 29.3019 1.6137 33.1476 -0.0000 26.2537 -27.0048 19.1285 -19.2427 -28.5843 31.2494 94.3203 16.2116 -0.0000 22.4662 0.6877 -5.2869 7.4225 32.8623 0.0000 -24.3270 -69.1856 3.4569 19.3222 3.4267 0.0000 -0.0000 43.0722 21.2523 -30.2841 8.4453 -0.0000 0.0000 -28.4750 -11.0025 20.7065 13.0097 0.0000 -0.0000 -20.0782 -11.3774 -10.2018 0.3139 -0.0000 -0.0000
 24.9739 32.0935 -4.2758 122.7881 -48.5949 109.7762 28.0623 15.0105 -7.7833 -37.4750 -2.3589 7.1660 5.0589 -7.5447 20.1090 -47.4565 -41.2616 -78.6751 -15.8979 -0.0000 7.1560 -0.7028 29.2231 1.4394 33.1476 -0.0000 26.2537 -26.9808 19.1022 -19.1629 -28.2181 31.2500 94.0668 15.9917 -0.0000 22.4682 0.6995 -5.3195 7.5023 32.8623 0.0000 -24.3270 -69.3258 3.4423 19.4531 3.7151 -0.0000 -0.0000 44.0543 21.3383 -30.6705 9.1659 -0.0000 0.0000 -28.2805 -10.5033 20.9377 12.7362 0.0000 -0.0000 -20.0245 -11.7830 -10.5428 0.3018 0.0000 0.0000
 25.1051 32.0926 -4.3091 122.9411 -48.9703 109.7282 28.1654 15.2169 -7.4877 -37.3885 -2.2985 6.9104 4.9186 -7.5588 20.1219 -47.7454 -41.1648 -78.9880 -15.8056 -0.0000 7.0214 -0.5186 29.0968 1.0663 33.1476 -0.0000 26.2537 -26.8281 19.0559 -19.1385 -28.0636 31.3953 93.8445 15.7695 -0.0000 22.4010 0.7132 -5.3724 7.5731 32.8623 0.0000 -24.3270 -69.5589 3.3104 19.6018 4.1885 0.0000 -0.0000 44.7997 21.4827 -30.9619 10.4197 0.0000 -0.0000 -28.0829 -10.2326 21.2030 12.5204 -0.0000 0.0000 -19.9748 -12.0519 -10.6667 0.4540 -0.0000 0.0000
 25.2259 32.0925 -4.3353 123.2193 -49.3026 109.8196 28.2902 15.5081 -7.2479 -37.3161 -2.1833 6.5413 4.7267 -7.6490 20.0324 -47.8969 -40.9379 -79.1761 -15.8585 -0.0000 7.0668 -0.3535 29.1336 0.7260 33.1476 -0.0000 26.2537 -26.7625 19.0067 -19.1449 -27.8947 31.3593 93.7063 15.4899 -0.0000 22.5600 0.7174 -5.3986 7.5807 32.8623 0.0000 -24.3270 -69.7213 3.1809 19.7958 4.6038 -0.0000 0.0000 45.4115 21.5259 -31.1331 11.4008 -0.0000 0.0000 -27.8564 -10.1228 21.4351 12.4128 0.0000 -0.0000 -19.8802 -12.1241 -10.6849 0.4808 0.0000 -0.0000
 25.3458 32.0953 -4.3603 123.5219 -49.5622 109.9145 28.3635 15.8091 -7.0122 -37.2738 -2.0778 6.2147 4.6399 -7.6528 19.9487 -48.1963 -40.7914 -79.3516 -15.8694 -0.0000 7.2075 -0.3480 29.0921 0.7157 33.1476 -0.0000 26.2537 -26.6862 18.9882 -19.1967 -27.7841 31.4019 93.6104 15.2203 -0.0000 22.7001 0.7414 -5.3774 7.8623 32.8623 0.0000 -24.3270 -69.9160 2.9770 20.0162 5.0519 0.0000 0.0000 45.9835 21.7485 -31.5274 12.8120 -0.0000 0.0000 -27.6495 -10.1603 21.6896 12.3495 -0.0000 0.0000 -19.7367 -12.0677 -10.6400 0.4706 0.0000 0.0000
 25.4574 32.1016 -4.3779 123.7991 -49.8098 110.0440 28.4541 16.0370 -6.8293 -37.2581 -1.9337 5.9562 4.7335 -7.5368 19.8618 -48.6983 -40.6684 -79.4823 -15.9176 -0.0000 7.4505 -0.2718 29.1087 0.5588 33.1476 -0.0000 26.2537 -26.6683 18.9350 -19.1779 -27.7272 31.3889 93.5281 14.9359 -0.0000 22.9270 0.7540 -5.4346 7.9108 32.8623 0.0000 -24.3270 -70.0765 2.8230 20.1726 5.4687 -0.0000 -0.0000 46.3924 22.0325 -31.6206 14.5147 0.0000 0.0000 -27.3968 -10.4203 21.8557 12.3446 0.0000 -0.0000 -19.5623 -11.7539 -10.4613 0.4061 -0.0000 0.0000
 25.5636 32.1100 -4.3938 124.0830 -50.0266 110.2273 28.5650 16.2349 -6.7588 -37.2724 -1.8427 5.8086 4.5953 -7.5445 19.7594 -48.9046 -40.5857 -79.5057 -15.9482 -0.0000 7.6388 -0.3465 29.0887 0.7127 33.1476 -0.0000 26.2537 -26.6674 18.8956 -19.1488 -27.6927 31.4395 93.4582 14.6991 -0.0000 23.0924 0.7793 -5.4385 8.1676 32.8623 0.0000 -24.3270 -70.2015 2.6316 20.3047 5.8995 -0.0000 0.0000 46.6978 22.3744 -31.9220 15.0494 -0.0000 -0.0000 -27.1355 -10.7659 21.9782 12.3490 -0.0000 0.0000 -19.4025 -11.3412 -10.2887 0.4390 0.0000 -0.0000
 25.6652 32.1190 -4.4070 124.2624 -50.2229 110.3573 28.6023 16.3585 -6.6909 -37.1920 -1.8189 5.7106 4.5639 -7.5452 19.6887 -49.1405 -40.5592 -79.4527 -16.0114 -0.0000 7.7548 -0.3971 29.1811 0.8143 33.1476 -0.0000 26.2537 -26.6128 18.9078 -19.1372 -27.6370 31.3996 93.3622 14.5391 -0.0000 23.2687 0.7776 -5.4089 8.1933 32.8623 0.0000 -24.3270 -70.3821 2.5728 20.3623 6.2725 0.0000 -0.0000 46.9624 22.5993 -31.7954 16.0770 0.0000 -0.0000 -26.8983 -11.2660 22.0520 12.4177 0.0000 -0.0000 -19.2594 -10.8357 -10.2833 0.3671 -0.0000 0.0000
 25.7592 32.1294 -4.4178 124.4391 -50.4094 110.5325 28.6857 16.4016 -6.7298 -37.1896 -1.8383 5.7643 4.5111 -7.5087 19.6496 -49.3858 -40.6210 -79.3583 -15.9611 -0.0000 7.6553 -0.3967 29.0959 0.8158 33.1476 -0.0000 26.2537 -26.6466 18.9445 -19.0412 -27.5653 31.2700 93.2607 14.4195 -0.0000 23.4265 0.7707 -5.3569 8.1996 32.8623 0.0000 -24.3270 -70.5034 2.5170 20.3958 6.6158 -0.0000 -0.0000 47.1544 22.6924 -31.6408 17.2342 0.0000 -0.0000 -26.6316 -11.8349 22.0738 12.4747 0.0000 -0.0000 -19.1351 -10.2483 -10.1106 0.3477 0.0000 0.0000
 25.8488 32.1432 -4.4283 124.5175 -50.5644 110.6659 28.7184 16.4403 -6.8127 -37.1180 -1.9616 5.7670 4.5622 -7.4941 19.6459 -49.7272 -40.6409 -79.2159 -15.9853 -0.0000 7.7887 -0.2203 29.1802 0.4518 33.1476 -0.0000 26.2537 -26.6582 18.9385 -18.9264 -27.5003 31.1686 93.1206 14.3369 -0.0000 23.5247 0.8108 -5.3752 8.5914 32.8623 0.0000 -24.3270 -70.6697 2.5740 20.3577 6.8877 0.0000 -0.0000 47.2590 22.7142 -31.3563 18.6238 -0.0000 0.0000 -26.4527 -12.3332 22.0506 12.5270 0.0000 -0.0000 -18.9842 -9.7573 -10.0307 0.2913 -0.0000 0.0000
 25.9307 32.1564 -4.4325 124.5230 -50.7195 110.8084 28.7666 16.3797 -6.9705 -37.0829 -2.1248 5.9458 4.4067 -7.5996 19.6903 -49.7967 -40.6683 -79.0383 -15.8949 -0.0000 7.6515 -0.2349 29.1735 0.4818 33.1476 -0.0000 26.2537 -26.5618 18.9410 -18.8558 -27.5267 31.1049 92.9593 14.3691 -0.0000 23.5110 0.7739 -5.3146 8.2971 32.8623 0.0000 -24.3270 -70.8022 2.6859 20.2377 7.0951 0.0000 -0.0000 47.3719 22.6523 -31.1921 19.3248 0.0000 -0.0000 -26.3494 -12.7246 21.9397 12.5852 -0.0000 0.0000 -18.8939 -9.3891 -10.0211 0.2955 -0.0000 0.0000
 26.0060 32.1704 -4.4374 124.4382 -50.8824 110.9223 28.8275 16.2729 -7.1805 -37.0393 -2.3224 6.1189 4.4466 -7.6352 19.7921 -50.1214 -40.6606 -78.8562 -15.8264 -0.0000 7.7179 -0.2634 29.3839 0.5367 33.1476 -0.0000 26.2537 -26.6642 18.9467 -18.6900 -27.4224 30.9864 92.8014 14.3945 -0.0000 23.5242 0.7627 -5.3307 8.1547 32.8623 0.0000 -24.3270 -70.8965 2.7850 20.0305 7.2762 -0.0000 0.0000 47.4263 22.6211 -30.7660 20.1065 -0.0000 0.0000 -26.2511 -13.1400 21.7751 12.5926 -0.0000 0.0000 -18.7291 -9.0649 -10.2025 -0.0860 -0.0000 -0.0000
